<?xml version="1.0" standalone="no"?>
<!DOCTYPE svg PUBLIC "-//W3C//DTD SVG 20010904//EN"
 "http://www.w3.org/TR/2001/REC-SVG-20010904/DTD/svg10.dtd">
<svg version="1.0" xmlns="http://www.w3.org/2000/svg"
 width="258.000000pt" height="258.000000pt" viewBox="0 0 258.000000 258.000000"
 preserveAspectRatio="xMidYMid meet">
<metadata>
Created by potrace 1.11, written by Peter Selinger 2001-2013
</metadata>
<g transform="translate(0.000000,258.000000) scale(0.100000,-0.100000)"
fill="#000000" stroke="none">
<path d="M1025 1951 c-6 -4 -64 -37 -130 -71 -66 -35 -124 -66 -130 -70 -5 -4
-55 -31 -110 -60 -55 -29 -185 -99 -290 -155 -104 -57 -228 -123 -275 -148
l-85 -46 -3 -103 -2 -103 67 -35 c38 -19 93 -48 123 -66 30 -17 91 -50 135
-74 44 -23 223 -121 398 -216 175 -96 320 -174 323 -174 2 0 4 58 4 129 l0
129 -252 127 c-450 228 -547 280 -540 286 4 4 184 96 400 204 l392 197 0 129
c0 123 -4 140 -25 120z"/>
<path d="M1522 1835 c1 -68 3 -127 7 -132 3 -5 179 -96 391 -202 212 -106 389
-196 393 -201 5 -4 -117 -71 -270 -148 -153 -77 -333 -168 -399 -203 l-122
-62 1 -129 c0 -70 2 -128 4 -128 2 0 59 30 126 67 67 37 152 83 188 103 36 19
215 116 397 215 l332 180 -2 103 -3 103 -250 135 c-137 74 -295 159 -350 189
-55 29 -170 91 -256 138 -86 46 -164 87 -172 90 -13 5 -15 -12 -15 -118z"/>
<path d="M1304 1837 c-52 -27 -61 -93 -18 -126 60 -47 141 -2 127 71 -9 50
-66 78 -109 55z"/>
<path d="M1353 1588 c-32 -41 -14 -88 33 -88 24 0 54 24 54 43 0 42 -64 75
-87 45z"/>
<path d="M1145 1540 c-17 -27 -13 -51 11 -66 23 -15 26 -15 44 1 23 20 26 45
8 63 -15 15 -54 16 -63 2z"/>
<path d="M717 1334 c-1 -1 -51 -4 -112 -8 -60 -3 -121 -8 -135 -11 -13 -2 -39
-6 -57 -7 -39 -2 -41 -9 -10 -24 75 -35 864 -438 871 -445 8 -7 261 117 531
261 39 21 130 67 203 104 72 37 132 70 132 73 0 5 -27 2 -120 -12 -207 -31
-320 -40 -515 -40 -195 0 -230 4 -340 39 -147 46 -205 56 -408 70 -20 1 -38 2
-40 0z"/>
</g>
</svg>
