<?xml version="1.0" encoding="utf-8"?>
<!-- Generator: Adobe Illustrator 21.1.0, SVG Export Plug-In . SVG Version: 6.00 Build 0)  -->
<svg version="1.1" id="Layer_1" xmlns="http://www.w3.org/2000/svg" xmlns:xlink="http://www.w3.org/1999/xlink" x="0px" y="0px"
	 viewBox="0 0 635.1 304.5" style="enable-background:new 0 0 635.1 304.5;" xml:space="preserve">
<style type="text/css">
	.st0{fill:#4B93B8;}
	.st1{fill:#016495;}
</style>
<g>
	<circle class="st0" cx="334.8" cy="43.2" r="6.8"/>
	<circle class="st0" cx="306" cy="48.9" r="5.7"/>
	<path class="st0" d="M438.5,79.8c-28.5,4.3-98.2,16.1-135.6,2.4c-41.3-15.1-87.1-7.3-105-5.3c-0.2,0.3-0.3,0.6-0.5,0.9
		c-1.3,2.4-2.6,4.9-3.7,7.3c0,0.1-0.1,0.1-0.1,0.2c-0.6,1.2-1.1,2.4-1.6,3.5c0,0.1-0.1,0.2-0.1,0.2c-1.6,3.7-3.1,7.5-4.3,11.4
		c-0.1,0.2-0.1,0.4-0.2,0.6c-0.4,1.1-0.7,2.2-1,3.3c-0.1,0.2-0.1,0.4-0.2,0.6c-0.8,2.6-1.4,5.2-2,7.8c0,0.2-0.1,0.4-0.1,0.6
		c-0.2,1.1-0.5,2.1-0.7,3.2c-0.1,0.4-0.1,0.7-0.2,1.1c-0.2,1-0.4,2-0.5,3c-0.1,0.3-0.1,0.7-0.2,1c-0.2,1.3-0.4,2.6-0.6,3.9
		c0,0,0,0.1,0,0.1c-0.2,1.3-0.3,2.7-0.4,4c0,0.4-0.1,0.7-0.1,1.1c-0.1,1-0.2,1.9-0.2,2.9c0,0.5-0.1,0.9-0.1,1.4
		c-0.1,0.9-0.1,1.9-0.1,2.8c0,0.4,0,0.8,0,1.2c0,1.3-0.1,2.7-0.1,4c0,75.5,61.2,136.7,136.7,136.7c5.9,0,11.7-0.4,17.4-1.1
		c2.3-0.3,4.5-0.6,6.8-1c2.2-0.4,4.5-0.9,6.7-1.4c2.2-0.5,4.4-1.1,6.5-1.7c2.2-0.6,4.3-1.3,6.4-2c2.1-0.7,4.2-1.5,6.3-2.3
		c3.1-1.2,6.2-2.6,9.1-4c6-2.9,11.7-6.2,17.2-9.9c0.9-0.6,1.8-1.2,2.7-1.9c1.8-1.3,3.5-2.6,5.3-3.9c0.9-0.7,1.7-1.4,2.6-2.1
		c2.3-1.9,4.5-3.9,6.7-5.9c0.2-0.2,0.5-0.4,0.7-0.6c0.1-0.1,0.3-0.3,0.4-0.4c25.9-24.9,42-59.8,42-98.5c0-1.3,0-2.6-0.1-3.9
		c0-0.4,0-0.8,0-1.3c0-0.9-0.1-1.8-0.1-2.7c0-0.5-0.1-1-0.1-1.4c-0.1-0.8-0.1-1.7-0.2-2.5c0-0.5-0.1-0.9-0.1-1.4
		c-0.1-0.9-0.2-1.8-0.3-2.7c0-0.4-0.1-0.8-0.1-1.2c-0.2-1.3-0.3-2.5-0.5-3.8c0,0,0-0.1,0-0.1c-0.2-1.2-0.4-2.5-0.6-3.7
		c-0.1-0.4-0.1-0.7-0.2-1.1c-0.2-0.9-0.3-1.8-0.5-2.6c-0.1-0.4-0.2-0.8-0.3-1.3c-0.2-0.9-0.4-1.7-0.6-2.5c-0.1-0.4-0.2-0.8-0.3-1.2
		c-0.2-0.9-0.5-1.9-0.7-2.8c-0.1-0.3-0.1-0.6-0.2-0.8c-0.7-2.5-1.5-4.9-2.3-7.3c-0.1-0.2-0.2-0.5-0.3-0.7c-0.3-1-0.7-1.9-1-2.9
		c-0.1-0.3-0.2-0.6-0.3-0.9c-0.4-0.9-0.7-1.9-1.1-2.8c-0.1-0.2-0.2-0.5-0.3-0.7c-0.5-1.1-0.9-2.2-1.4-3.2c0-0.1-0.1-0.1-0.1-0.2
		c-1.1-2.4-2.2-4.8-3.4-7.1C438.7,80.2,438.6,80,438.5,79.8z"/>
	<path class="st1" d="M464.3,81.3c-0.9-2.2-1.9-4.4-3-6.6l-16.8,3.8c1.6,3,3,6.2,4.3,9.3c7.4,17.6,11.2,36.2,11.2,55.5
		s-3.8,37.9-11.2,55.5c-7.2,17-17.5,32.2-30.5,45.3c-13.1,13.1-28.3,23.4-45.3,30.5c-17.6,7.4-36.2,11.2-55.5,11.2
		s-37.9-3.8-55.5-11.2c-17-7.2-32.2-17.5-45.3-30.5c-13.1-13.1-23.4-28.3-30.5-45.3c-7.4-17.6-11.2-36.2-11.2-55.5
		s3.8-37.9,11.2-55.5c1.3-3.1,2.7-6.1,4.2-9.1l-19.7,2.5c0,0,0,0.1,0,0.1c-8.3,19.7-12.5,40.5-12.5,62c0,21.5,4.2,42.4,12.5,62
		c8,19,19.5,36,34.1,50.6c14.6,14.6,31.7,26.1,50.6,34.1c19.7,8.3,40.5,12.5,62,12.5s42.4-4.2,62-12.5c19-8,36-19.5,50.6-34.1
		c14.6-14.6,26.1-31.7,34.1-50.6c8.3-19.7,12.5-40.5,12.5-62C476.8,121.8,472.6,100.9,464.3,81.3z"/>
	<g>
		<path class="st0" d="M335.7,10.6c0,5.8-4.7,10.6-10.6,10.6c-5.8,0-10.6-4.7-10.6-10.6c0-2.5,0.9-4.9,2.4-6.7
			c1.9-2.4,4.9-3.9,8.2-3.9c3.9,0,7.3,2.1,9.1,5.3C335.2,6.8,335.7,8.6,335.7,10.6z"/>
	</g>
</g>
<g>
	<path class="st1" d="M0,226.4c4.1-11,9.9-23.3,17.3-37c7.4-13.7,15.8-27.8,25.2-42.2c9.4-14.4,19.5-28.5,30.5-42.3
		C84,91,95.1,78.4,106.3,67h23.3v154.9h29.5v18.2h-29.5v64.4h-21.9v-64.4H0V226.4z M107.6,221.9V92.4c-8,8.2-16.1,17.7-24.3,28.4
		c-8.2,10.7-16.1,21.8-23.5,33.3c-7.4,11.5-14.3,23.1-20.7,34.7c-6.4,11.6-11.8,22.7-16.1,33.1H107.6z"/>
</g>
<g>
	<path class="st1" d="M476,226.4c4.1-11,9.9-23.3,17.3-37c7.4-13.7,15.8-27.8,25.2-42.2c9.4-14.4,19.5-28.5,30.5-42.3
		C560,91,571.1,78.4,582.3,67h23.3v154.9h29.5v18.2h-29.5v64.4h-21.9v-64.4H476V226.4z M583.6,221.9V92.4
		c-8,8.2-16.1,17.7-24.3,28.4c-8.2,10.7-16.1,21.8-23.5,33.3c-7.4,11.5-14.3,23.1-20.7,34.7c-6.4,11.6-11.8,22.7-16.1,33.1H583.6z"
		/>
</g>
</svg>
