<?xml version="1.0" encoding="utf-8"?>
<!-- Generator: Adobe Illustrator 22.1.0, SVG Export Plug-In . SVG Version: 6.00 Build 0)  -->
<svg version="1.1" id="Layer_1" xmlns="http://www.w3.org/2000/svg" xmlns:xlink="http://www.w3.org/1999/xlink" x="0px" y="0px"
	 viewBox="0 0 512 512" style="enable-background:new 0 0 512 512;" xml:space="preserve">
<style type="text/css">
	.st0{fill:url(#SVGID_1_);}
	.st1{fill:url(#SVGID_2_);}
	.st2{fill:url(#SVGID_3_);}
	.st3{fill:#FFFFFF;}
	.st4{display:none;fill:#FFFFFF;}
</style>
<g id="Layer_2_1_">
	
		<linearGradient id="SVGID_1_" gradientUnits="userSpaceOnUse" x1="266.4454" y1="451.3077" x2="266.4454" y2="73.5299" gradientTransform="matrix(1 0 0 -1 0 512)">
		<stop  offset="0" style="stop-color:#02A9FF"/>
		<stop  offset="1" style="stop-color:#0071FF"/>
	</linearGradient>
	<path class="st0" d="M276.3,96c-3.2,0.7-6.4,1.2-9.8,1.2c-3.4,0-6.6-0.5-9.8-1.2v74.3h19.6V96z"/>
	
		<linearGradient id="SVGID_2_" gradientUnits="userSpaceOnUse" x1="266.4454" y1="451.3077" x2="266.4454" y2="73.5299" gradientTransform="matrix(1 0 0 -1 0 512)">
		<stop  offset="0" style="stop-color:#02A9FF"/>
		<stop  offset="1" style="stop-color:#0071FF"/>
	</linearGradient>
	<path class="st1" d="M297.1,59.3c0,13.5-8.8,24.8-20.8,28.9c-3.2,1-6.4,1.7-9.8,1.7c-3.4,0-6.9-0.5-9.8-1.7
		c-12-4.2-20.8-15.4-20.8-28.9c0-16.9,13.7-30.6,30.6-30.6S297.1,42.4,297.1,59.3z"/>
	
		<linearGradient id="SVGID_3_" gradientUnits="userSpaceOnUse" x1="266.4454" y1="334.5671" x2="266.4454" y2="28.6334" gradientTransform="matrix(1 0 0 -1 0 512)">
		<stop  offset="0" style="stop-color:#02A9FF"/>
		<stop  offset="1" style="stop-color:#0071FF"/>
	</linearGradient>
	<path class="st2" d="M374.8,177.4H158.1c-39.5,0-71.8,32.4-71.8,71.8v94.1c0,39.7,32.4,71.8,71.8,71.8h161.8l3.4,3.7l3.4,3.7
		l55.9,60.8V415c36-3.9,64-34.3,64-71.3v-94.4C446.6,209.8,414.3,177.4,374.8,177.4z M172.8,268.4c0-16.7,13.5-30.2,30.2-30.2
		s30.2,13.5,30.2,30.2s-13.5,30.2-30.2,30.2C186.3,298.5,172.8,285,172.8,268.4z M266.4,376c-25,0-46.3-14.7-56.4-35.8h7.8
		c9.3,17.2,27.7,28.9,48.5,28.9s39.2-11.8,48.8-28.9h7.8C312.8,361.3,291.2,376,266.4,376z"/>
	<circle class="st3" cx="203" cy="268.4" r="30.2"/>
	<circle class="st4" cx="-184.9" cy="289.8" r="12.3"/>
	<g>
		<path class="st3" d="M328.7,336.5l-2.5,5.1c-11,23-34.3,38-59.8,38s-48.8-15-59.8-38l-2.5-5.1h15.7l1,2c9.1,16.7,26.5,27,45.4,27
			s36.3-10.3,45.4-27l1-2H328.7z"/>
	</g>
	<polygon class="st3" points="260.3,301 317.9,240.4 345.4,268.4 396.9,240.4 340.5,301 313,272.8 	"/>
</g>
</svg>
